<svg width="87" height="17" viewBox="0 0 87 17" fill="none" xmlns="http://www.w3.org/2000/svg">
<path d="M5.57303e-06 -8.91685e-05H2.67827L5.88069 5.7911H6.00853L9.21094 -8.91685e-05H11.8892L7.12714 8.2073V13.0908H4.76208V8.2073L5.57303e-06 -8.91685e-05ZM15.921 13.2826C14.9622 13.2826 14.1312 13.0716 13.4281 12.6498C12.725 12.2279 12.1795 11.6377 11.7917 10.8792C11.4082 10.1206 11.2164 9.23429 11.2164 8.22008C11.2164 7.20588 11.4082 6.31738 11.7917 5.5546C12.1795 4.79181 12.725 4.19948 13.4281 3.77761C14.1312 3.35574 14.9622 3.1448 15.921 3.1448C16.8798 3.1448 17.7108 3.35574 18.4139 3.77761C19.117 4.19948 19.6603 4.79181 20.0439 5.5546C20.4316 6.31738 20.6255 7.20588 20.6255 8.22008C20.6255 9.23429 20.4316 10.1206 20.0439 10.8792C19.6603 11.6377 19.117 12.2279 18.4139 12.6498C17.7108 13.0716 16.8798 13.2826 15.921 13.2826ZM15.9338 11.4289C16.4537 11.4289 16.8883 11.2861 17.2378 11.0006C17.5872 10.7108 17.8471 10.3231 18.0176 9.83727C18.1923 9.35147 18.2797 8.81028 18.2797 8.21369C18.2797 7.61284 18.1923 7.06951 18.0176 6.58372C17.8471 6.09366 17.5872 5.70375 17.2378 5.41397C16.8883 5.1242 16.4537 4.97931 15.9338 4.97931C15.4011 4.97931 14.9579 5.1242 14.6042 5.41397C14.2548 5.70375 13.9927 6.09366 13.818 6.58372C13.6476 7.06951 13.5623 7.61284 13.5623 8.21369C13.5623 8.81028 13.6476 9.35147 13.818 9.83727C13.9927 10.3231 14.2548 10.7108 14.6042 11.0006C14.9579 11.2861 15.4011 11.4289 15.9338 11.4289ZM28.8473 8.96156V3.27264H31.1612V13.0908H28.9176V11.3458H28.8153C28.5938 11.8955 28.2294 12.3451 27.7223 12.6945C27.2195 13.0439 26.5994 13.2187 25.8622 13.2187C25.2188 13.2187 24.6499 13.0759 24.1555 12.7904C23.6655 12.5006 23.282 12.0809 23.005 11.5312C22.728 10.9772 22.5895 10.3081 22.5895 9.52406V3.27264H24.9034V9.1661C24.9034 9.78826 25.0739 10.2826 25.4148 10.6491C25.7557 11.0155 26.2031 11.1988 26.7571 11.1988C27.098 11.1988 27.4283 11.1157 27.7479 10.9495C28.0675 10.7833 28.3296 10.5361 28.5341 10.208C28.7429 9.87562 28.8473 9.46014 28.8473 8.96156ZM33.5407 13.0908V3.27264H35.7843V4.909H35.8865C36.0655 4.34224 36.3723 3.90545 36.807 3.59863C37.2459 3.28755 37.7466 3.13201 38.3091 3.13201C38.437 3.13201 38.5797 3.13841 38.7374 3.15119C38.8993 3.15971 39.0336 3.17463 39.1401 3.19593V5.32448C39.0421 5.29039 38.8865 5.26056 38.6735 5.235C38.4647 5.20517 38.2623 5.19025 38.0662 5.19025C37.6444 5.19025 37.2651 5.28187 36.9285 5.46511C36.5961 5.64409 36.334 5.89338 36.1422 6.21298C35.9505 6.53258 35.8546 6.90119 35.8546 7.3188V13.0908H33.5407ZM45.2445 13.0908V-8.91685e-05H47.616V11.1029H53.3816V13.0908H45.2445ZM59.6202 13.2826C58.6614 13.2826 57.8304 13.0716 57.1273 12.6498C56.4242 12.2279 55.8787 11.6377 55.491 10.8792C55.1074 10.1206 54.9157 9.23429 54.9157 8.22008C54.9157 7.20588 55.1074 6.31738 55.491 5.5546C55.8787 4.79181 56.4242 4.19948 57.1273 3.77761C57.8304 3.35574 58.6614 3.1448 59.6202 3.1448C60.579 3.1448 61.41 3.35574 62.1131 3.77761C62.8162 4.19948 63.3596 4.79181 63.7431 5.5546C64.1309 6.31738 64.3248 7.20588 64.3248 8.22008C64.3248 9.23429 64.1309 10.1206 63.7431 10.8792C63.3596 11.6377 62.8162 12.2279 62.1131 12.6498C61.41 13.0716 60.579 13.2826 59.6202 13.2826ZM59.633 11.4289C60.1529 11.4289 60.5875 11.2861 60.937 11.0006C61.2864 10.7108 61.5463 10.3231 61.7168 9.83727C61.8915 9.35147 61.9789 8.81028 61.9789 8.21369C61.9789 7.61284 61.8915 7.06951 61.7168 6.58372C61.5463 6.09366 61.2864 5.70375 60.937 5.41397C60.5875 5.1242 60.1529 4.97931 59.633 4.97931C59.1003 4.97931 58.6571 5.1242 58.3035 5.41397C57.954 5.70375 57.6919 6.09366 57.5172 6.58372C57.3468 7.06951 57.2615 7.61284 57.2615 8.21369C57.2615 8.81028 57.3468 9.35147 57.5172 9.83727C57.6919 10.3231 57.954 10.7108 58.3035 11.0006C58.6571 11.2861 59.1003 11.4289 59.633 11.4289ZM70.5586 16.9772C69.7276 16.9772 69.0139 16.8643 68.4173 16.6384C67.8207 16.4168 67.3413 16.1185 66.9791 15.7435C66.6168 15.3685 66.3654 14.953 66.2248 14.4971L68.3086 13.9921C68.4023 14.1839 68.5387 14.3735 68.7177 14.561C68.8967 14.7528 69.1374 14.9104 69.44 15.034C69.7468 15.1618 70.1325 15.2258 70.597 15.2258C71.2532 15.2258 71.7965 15.066 72.2269 14.7464C72.6573 14.431 72.8725 13.9111 72.8725 13.1867V11.3266H72.7575C72.6381 11.5653 72.4634 11.8103 72.2333 12.0617C72.0075 12.3131 71.707 12.5241 71.332 12.6945C70.9613 12.865 70.4947 12.9502 69.9322 12.9502C69.1779 12.9502 68.494 12.7733 67.8803 12.4197C67.271 12.0617 66.7852 11.529 66.4229 10.8216C66.065 10.11 65.886 9.21937 65.886 8.14977C65.886 7.07164 66.065 6.16184 66.4229 5.42037C66.7852 4.67463 67.2731 4.11 67.8867 3.72647C68.5004 3.33869 69.1843 3.1448 69.9386 3.1448C70.5139 3.1448 70.9869 3.24281 71.3576 3.43883C71.7326 3.63059 72.0309 3.86284 72.2525 4.13556C72.4741 4.40403 72.6424 4.65758 72.7575 4.89622H72.8853V3.27264H75.1673V13.2506C75.1673 14.0901 74.967 14.7847 74.5664 15.3344C74.1658 15.8841 73.6183 16.2954 72.9237 16.5681C72.2291 16.8408 71.4407 16.9772 70.5586 16.9772ZM70.5778 11.1349C71.0678 11.1349 71.4854 11.0155 71.8306 10.7769C72.1758 10.5383 72.4379 10.1952 72.6168 9.74778C72.7958 9.30034 72.8853 8.76341 72.8853 8.13699C72.8853 7.51909 72.7958 6.97789 72.6168 6.51341C72.4421 6.04892 72.1822 5.68883 71.837 5.43315C71.4961 5.17321 71.0764 5.04323 70.5778 5.04323C70.0622 5.04323 69.6318 5.17747 69.2866 5.44593C68.9414 5.7144 68.6815 6.08301 68.5068 6.55176C68.332 7.01625 68.2447 7.54466 68.2447 8.13699C68.2447 8.73784 68.332 9.26412 68.5068 9.71582C68.6857 10.1633 68.9478 10.5127 69.293 10.7641C69.6424 11.0113 70.0707 11.1349 70.5778 11.1349ZM81.8214 13.2826C80.8626 13.2826 80.0316 13.0716 79.3285 12.6498C78.6254 12.2279 78.0799 11.6377 77.6921 10.8792C77.3086 10.1206 77.1168 9.23429 77.1168 8.22008C77.1168 7.20588 77.3086 6.31738 77.6921 5.5546C78.0799 4.79181 78.6254 4.19948 79.3285 3.77761C80.0316 3.35574 80.8626 3.1448 81.8214 3.1448C82.7802 3.1448 83.6112 3.35574 84.3143 3.77761C85.0174 4.19948 85.5607 4.79181 85.9443 5.5546C86.332 6.31738 86.5259 7.20588 86.5259 8.22008C86.5259 9.23429 86.332 10.1206 85.9443 10.8792C85.5607 11.6377 85.0174 12.2279 84.3143 12.6498C83.6112 13.0716 82.7802 13.2826 81.8214 13.2826ZM81.8342 11.4289C82.3541 11.4289 82.7887 11.2861 83.1381 11.0006C83.4876 10.7108 83.7475 10.3231 83.918 9.83727C84.0927 9.35147 84.18 8.81028 84.18 8.21369C84.18 7.61284 84.0927 7.06951 83.918 6.58372C83.7475 6.09366 83.4876 5.70375 83.1381 5.41397C82.7887 5.1242 82.3541 4.97931 81.8342 4.97931C81.3015 4.97931 80.8583 5.1242 80.5046 5.41397C80.1552 5.70375 79.8931 6.09366 79.7184 6.58372C79.5479 7.06951 79.4627 7.61284 79.4627 8.21369C79.4627 8.81028 79.5479 9.35147 79.7184 9.83727C79.8931 10.3231 80.1552 10.7108 80.5046 11.0006C80.8583 11.2861 81.3015 11.4289 81.8342 11.4289Z" fill="#1C1C1C"/>
</svg>
